HIERARCHY
ROOT Hips
{
  OFFSET 0.0 0.0 0.0
  CHANNELS 6 XPOSITION YPOSITION ZPOSITION ZROTATION XROTATION YROTATION 
  JOINT LeftUpLeg
  {
    OFFSET 0.08945800000000001 -0.0866707 0.0010165200000000001
    CHANNELS 3 ZROTATION XROTATION YROTATION 
    JOINT LeftLeg
    {
      OFFSET 0.0 -0.444227 0.013727000000000001
      CHANNELS 3 ZROTATION XROTATION YROTATION 
      JOINT LeftFoot
      {
        OFFSET -0.0025354900000000005 -0.42092399999999996 -0.014605900000000002
        CHANNELS 3 ZROTATION XROTATION YROTATION 
        End Site
        {
          OFFSET -0.0004 -0.0441509 0.08499100000000001
        }
      }
    }
  }
  JOINT Spine
  {
    OFFSET 0.0 0.118905 0.0
    CHANNELS 3 ZROTATION XROTATION YROTATION 
    JOINT Spine1
    {
      OFFSET 0.0 0.25657399999999997 0.00127663
      CHANNELS 3 ZROTATION XROTATION YROTATION 
      End Site
      {
        OFFSET -0.0029 0.21508359999999999 0.02525291
      }
      JOINT RightArm
      {
        OFFSET -0.162727 -0.05365632 0.0010212299999999997
        CHANNELS 3 ZROTATION XROTATION YROTATION 
        JOINT RightForeArm
        {
          OFFSET -0.26364 0.00099144 -0.0142434
          CHANNELS 3 ZROTATION XROTATION YROTATION 
          End Site
          {
            OFFSET -0.220324 0.0008536199999999999 0.010221599999999999
          }
        }
      }
      JOINT LeftArm
      {
        OFFSET 0.162727 -0.053656319900000006 0.0010212299999999997
        CHANNELS 3 ZROTATION XROTATION YROTATION 
        JOINT LeftForeArm
        {
          OFFSET 0.26259699999999997 0.00099144 -0.0142434
          CHANNELS 3 ZROTATION XROTATION YROTATION 
          End Site
          {
            OFFSET 0.220902 0.0008536199999999999 0.010221599999999999
          }
        }
      }
    }
  }
  JOINT RightUpLeg
  {
    OFFSET -0.08945800000000001 -0.0866707 0.0010165200000000001
    CHANNELS 3 ZROTATION XROTATION YROTATION 
    JOINT RightLeg
    {
      OFFSET 0.0 -0.444227 0.013727000000000001
      CHANNELS 3 ZROTATION XROTATION YROTATION 
      JOINT RightFoot
      {
        OFFSET 0.0025354900000000005 -0.42092399999999996 -0.014605900000000002
        CHANNELS 3 ZROTATION XROTATION YROTATION 
        End Site
        {
          OFFSET 0.0004 -0.0441509 0.08499100000000001
        }
      }
    }
  }
}
MOTION
Frames: 10
Frame Time: 0.033333
1.9576900000000002 0.9892139237655453 0.039193 -4.11276041579592 -0.49068303112953743 -91.35199746954717 -0.9824719125743823 2.2487601698341853 1.8531201815007272 0.3441779813928498 9.181910386160059 17.154899487342664 -3.1991641308119463 -7.18069740274488 -0.05211792187939428 0.45458702883075386 8.749310109793546 -0.06348350006558763 -0.07085779651231389 -3.1356399564362425 0.05664930216150147 78.73706837445133 -20.22612990613204 6.3107208402347235 8.203980122496912 41.090202895837855 6.849799923780327 -72.92815640989556 -9.836472173758121 0.8765851974189671 -4.090299765597156 36.118600406539365 -14.795600176311225 -0.556325044395621 3.0877601169110416 -4.055420123940016 -0.25860899794495984 10.56339981561247 -8.232159775465092 3.1558790876074596 -9.570496069741363 -0.045991035420587884 
1.9576900000000002 0.9892139237655453 0.0392908 -4.117610276993452 -0.4862660331706548 -91.37349890505438 -0.989096022130531 2.2568900159372047 1.8531299998976591 0.34511102258607057 9.179610319957057 17.20590050987515 -3.2147636425460204 -7.21169707006663 -0.05212153040707101 0.5138190162824863 8.786249480372268 -0.04333949795486142 -0.17026399616670923 -3.230150137755355 0.09499349724417043 78.72127014690109 -20.207423725542668 6.218032611876712 8.185820357041141 41.00380100283719 6.899610358963114 -72.90744727633209 -9.822838262401131 0.9103848154135983 -4.074819995616968 36.207898299748116 -14.796600799024633 -0.5569900273443452 3.0897500498370425 -4.055420123940016 -0.2595079949140363 10.56339981561247 -8.232159775465092 3.1293591706075925 -9.570496069741363 -0.045991035420587884 
1.9576900000000002 0.9892139237655453 0.039424 -4.1200396899038605 -0.4881259790590139 -91.38700218904349 -1.0014200312707613 2.2568599204161743 1.8504401860251436 0.34378999463148135 9.19231020294505 17.237899946136658 -3.231252786419489 -7.237896821949152 -0.05212446525398 0.5927000172333172 8.839299559655757 -0.02888330252493026 -0.3316080054012198 -3.369950022800353 0.1375990033273067 78.69501489973156 -20.079670159759456 6.071587806542938 8.14127983968984 40.816397687484965 7.029599957925858 -72.87030470762556 -9.870941577178238 0.9551436853749266 -4.0648299901821785 36.37339719843211 -14.77110028775839 -0.5621750480588841 3.090740000379871 -4.055430369223772 -0.2651740103565321 10.563400669386116 -8.232699360409523 3.0736293092919316 -9.570496923515009 -0.045991035420587884 
1.9577099999999998 0.9892139237655453 0.0395518 -4.096169886301959 -0.5009400009113396 -91.38409935864622 -1.018999977699022 2.223409922729683 1.8373100011194403 0.338980981166837 9.210640723130071 17.22609908679817 -3.228993061021273 -7.230197491207255 -0.052123581464854 0.611263991149736 8.84361026279568 -0.03426049901610172 -0.40511799638476137 -3.4275001295298226 0.14342000536702362 78.72239029792497 -20.072454064901336 6.059964959009692 8.124930074364123 40.92619980858209 7.0331998945052785 -72.86571482050331 -9.988591585631708 0.9757083177487771 -4.064669907623506 36.48939771620102 -14.737099606070068 -0.5768830066628602 3.0624999429262187 -4.055320232423405 -0.2759109876905128 10.56339981561247 -8.230640058374764 3.034609292337295 -9.570496923515009 -0.045991035420587884 
1.95779 0.9892039237655452 0.0396999 -4.058000227898988 -0.5106960190062038 -91.38399690580869 -1.0340700430507146 2.171219806951381 1.8223499658464084 0.33264000429612645 9.220459973835611 17.219400378769677 -3.199423464556995 -7.210397626577034 -0.052121320298712755 0.5829910100498499 8.81641927970986 -0.04216860075988025 -0.3541940002434239 -3.3973599988264374 0.12524700641973532 78.81750751230658 -20.319793997767718 6.215997215504048 8.176300780885436 41.419100410036066 6.811399746492869 -72.9126382201013 -10.04350630655861 0.9775061516043714 -4.047880021983145 36.48450047056612 -14.749800342831707 -0.5942219754794665 3.0142700562060547 -4.055560142818002 -0.2800129965347815 10.563699490162305 -8.219470137760855 3.052779303076821 -9.573296447301068 -0.04599146564246431 
1.9579 0.9891639237655452 0.0398625 -4.042330066395687 -0.5032959892881709 -91.38420181148378 -1.0338199940940687 2.1403998589821676 1.8265400734587995 0.324552980277552 9.225590299675936 17.234500219477283 -3.151373297189367 -7.210796338869834 -0.052121393669885475 0.57718001317005 8.80106074558744 -0.04282409881700313 -0.27963298722092017 -3.3321099210248364 0.11209100820144617 78.91666136848765 -20.60089726324876 6.3939898108404645 8.262269810647448 41.87300063132926 6.538540092453206 -72.96935611096909 -9.98946755739276 0.9547840332264431 -4.013869948784714 36.41119888039354 -14.805300752479937 -0.5988679982189561 2.9894999482941804 -4.059649718583547 -0.271591986937964 10.565400207265638 -8.22588966180702 3.1009596709255027 -9.585196344382522 -0.04599303645257129 
1.95797 0.9891039237655452 0.0400038 -4.053120057737015 -0.4887140156578697 -91.36619743283163 -1.0265500047745306 2.141309981689072 1.8359298760202747 0.32032498645960833 9.230529380219503 17.242699861575886 -3.1117129500000416 -7.2308967318235355 -0.05212373821235936 0.6046030092442396 8.75993020017927 -0.0536493983676779 -0.2745519934890919 -3.212239887647701 0.1021940040631382 78.9726347687359 -20.69579591157692 6.509609545563148 8.327350414380268 42.001500395279294 6.396479841679757 -72.98085814953139 -9.973990348733512 0.8799788409411113 -3.997170136264032 36.33239898793911 -14.840800660691079 -0.5991179938147492 2.991099920107256 -4.076259884871372 -0.25292902863943306 10.580800576296724 -8.247429517128301 3.1157698689236177 -9.596796566914144 -0.04599462060289148 
1.95801 0.9890939237655454 0.040118799999999996 -4.059580136031378 -0.48996799570080174 -91.33850101574723 -1.0396199986381731 2.144329992519275 1.8173799360081662 0.33004498597877113 9.233840314419666 17.238598332979294 -3.109082686839352 -7.2477971811510855 -0.05212569588864979 0.6191220170681297 8.663610018730104 -0.08651729918525071 -0.33891697482379457 -3.0402399295343243 0.08150039850785074 79.00957243176732 -20.641437851067373 6.597346313659724 8.374160262083304 41.91980108752219 6.35630979162362 -72.93331320271892 -10.091296286407543 0.7835188540573716 -3.997940240092951 36.23770183019147 -14.848600736723233 -0.6197150162263044 2.980129782526569 -4.109119924968303 -0.23137999525145442 10.62359939540967 -8.243059903606786 3.090490058144931 -9.603397090973314 -0.045995517732230706 
1.95807 0.9890839237655453 0.0402265 -4.051300239210029 -0.5084000082280216 -91.32499773175812 -1.0744400895834867 2.129379989086587 1.7786099680101755 0.3478369884364197 9.242860432992314 17.238900568850067 -3.1417924627745433 -7.255697148699851 -0.052126563002509264 0.6239739593389247 8.633850030742712 -0.12059099186054192 -0.44507700426771607 -2.9895799895735164 0.06499820123574375 79.04748681185006 -20.537309909623236 6.626004506756628 8.42806069991846 41.73899915000278 6.342920486416279 -72.84848908341654 -10.194421043817334 0.7667263537352192 -3.9643096692802775 36.12729865244738 -14.898401353509088 -0.6564929702250314 2.953779979925718 -4.141319998036682 -0.21927699342368437 10.65730040254816 -8.20890042002026 3.0763103719845732 -9.616096120187661 -0.04599723861973643 
1.95812 0.9890639237655454 0.040319900000000006 -4.046200222334146 -0.5189739948368476 -91.31510078765076 -1.0930799959935686 2.107090093617073 1.7652299475912379 0.35161901892632913 9.265629722364197 17.240700323696363 -3.16614230060905 -7.266797913648415 -0.05212791036404476 0.6718889636661807 8.79133967885122 -0.13320399003981506 -0.575571983868188 -3.201869952940329 0.07366570462238331 79.05411892553415 -20.380403388915116 6.495018127061885 8.465369754486007 41.43129912789371 6.3976102379873945 -72.75772269953625 -10.139397893637357 0.8567441382103147 -3.892420220718601 36.066499723550514 -14.995099756683544 -0.6754790284878157 2.9467999534807876 -4.151599859624374 -0.21669499515443444 10.653299619241825 -8.197340324850014 3.0933408083497653 -9.631597234509005 -0.04599938305901198 
